<svg width="512" height="512" viewBox="0 0 512 512" fill="none" xmlns="http://www.w3.org/2000/svg">
<circle cx="256" cy="256" r="256" fill="#43FFA2"/>
<path fill-rule="evenodd" clip-rule="evenodd" d="M147.645 92.1645L139.91 108.876L121.982 111.893C112.119 113.552 103.793 114.967 103.474 115.043C103.16 115.118 106.699 118.674 111.335 122.955C115.977 127.23 122.133 132.99 125.017 135.763L130.267 140.792L127.645 158.583C126.2 168.363 125.185 176.531 125.388 176.734C125.591 176.937 132.867 173.166 141.558 168.352L157.357 159.604L173.864 167.58C182.938 171.965 190.469 175.452 190.603 175.324C190.731 175.191 189.274 167.07 187.365 157.278L183.896 139.464L196.771 126.261C209.465 113.244 209.616 113.047 207.586 112.56C206.454 112.287 198.291 111.203 189.443 110.147C180.6 109.091 173.162 108.018 172.912 107.763C172.663 107.502 168.839 100.378 164.424 91.9325C160.003 83.4866 156.162 76.3168 155.883 76.0094C155.605 75.702 151.897 82.9703 147.645 92.1645ZM351.012 93.7249C346.922 102.571 343.226 110.071 342.797 110.402C342.367 110.733 334.622 112.212 325.588 113.697C316.554 115.182 308.582 116.609 307.88 116.87C306.859 117.247 309.307 119.875 320.07 129.922L333.537 142.498L330.856 160.608C329.382 170.567 328.28 178.816 328.408 178.944C328.529 179.071 335.892 175.127 344.769 170.185L360.899 161.205L377.365 169.436C386.817 174.17 393.837 177.29 393.849 176.78C393.866 176.287 392.364 168.108 390.513 158.612L387.148 141.343L399.779 128.338C406.724 121.186 412.41 115.106 412.41 114.834C412.41 114.561 404.49 113.407 394.818 112.264C385.14 111.121 376.82 109.857 376.321 109.457C375.828 109.05 371.79 101.73 367.351 93.1854C362.912 84.6351 359.095 77.6452 358.863 77.6452C358.63 77.6452 355.097 84.8788 351.012 93.7249ZM351.865 219.12C333.722 220.657 316.722 226.591 301.283 236.777C292.626 242.491 275.377 260.317 231.275 309.13C186.739 358.425 176.458 368.228 164.453 372.811C158.222 375.195 145.103 375.519 137.624 373.478C124.274 369.829 113.691 361.174 107.442 348.778C104.274 342.502 102.969 337.478 102.516 329.85C100.526 296.142 134.921 270.532 166.316 282.348C171.949 284.465 176.498 287.377 185.52 294.616C193.608 301.107 196.776 302.964 198.732 302.343C201.354 301.508 225.723 275.039 233.492 264.586C235.871 261.384 236.439 260.125 235.929 259.174C234.658 256.807 221.702 244.985 214.217 239.364C202.282 230.402 189.21 224.555 173.702 221.225C162.422 218.801 142.817 218.435 131.144 220.425C104.756 224.915 83.8336 237.253 65.4991 259.116C52.1892 274.987 44.7045 292.267 42.1806 312.982C41.0782 321.99 41.6816 341.748 43.2946 349.497C48.1915 373.083 61.9714 395.95 80.654 411.507C94.1616 422.827 110.248 430.651 127.494 434.287C137.416 436.427 157.74 436.59 168.364 434.618C183.171 431.868 199.347 425.539 210.458 418.149C218.871 412.551 239.305 391.28 287.381 338.064C315.289 307.169 328.117 293.456 332.312 290.045C336.757 286.426 343.858 282.655 349.248 281.054C372.642 274.111 399.303 288.624 407.385 312.703C409.532 319.096 410.054 329.897 408.563 336.991C407.095 343.975 402.012 354.155 397.44 359.266C383.167 375.2 361.444 379.487 341.845 370.235C335.608 367.288 332.214 365.003 325.106 358.964C322.141 356.447 318.538 353.656 317.094 352.763C314.541 351.185 314.413 351.174 312.522 352.415C306.029 356.667 278.098 388.705 276.891 393.276C276.595 394.401 277.094 395.816 278.498 397.841C282.798 404.048 300.123 417.998 309.992 423.207C331.5 434.56 360.992 438.753 384.525 433.805C421.496 426.027 454.184 396.501 465.62 360.559C468.69 350.913 469.566 345.315 470.041 332.35C470.744 313.214 468.962 301.867 462.905 286.965C453.894 264.789 435.734 243.877 415.624 232.525C397.452 222.269 373.687 217.269 351.865 219.12Z" fill="#010101"/>
<mask id="mask0_4_45" style="mask-type:alpha" maskUnits="userSpaceOnUse" x="41" y="76" width="430" height="360">
<path fill-rule="evenodd" clip-rule="evenodd" d="M147.645 92.1645L139.91 108.876L121.982 111.893C112.119 113.552 103.793 114.967 103.474 115.043C103.16 115.118 106.699 118.674 111.335 122.955C115.977 127.23 122.133 132.99 125.017 135.763L130.267 140.792L127.645 158.583C126.2 168.363 125.185 176.531 125.388 176.734C125.591 176.937 132.867 173.166 141.558 168.352L157.357 159.604L173.864 167.58C182.938 171.965 190.469 175.452 190.603 175.324C190.731 175.191 189.274 167.07 187.365 157.278L183.896 139.464L196.771 126.261C209.465 113.244 209.616 113.047 207.586 112.56C206.454 112.287 198.291 111.203 189.443 110.147C180.6 109.091 173.162 108.018 172.912 107.763C172.663 107.502 168.839 100.378 164.424 91.9325C160.003 83.4866 156.162 76.3168 155.883 76.0094C155.605 75.702 151.897 82.9703 147.645 92.1645ZM351.012 93.7249C346.922 102.571 343.226 110.071 342.797 110.402C342.367 110.733 334.622 112.212 325.588 113.697C316.554 115.182 308.582 116.609 307.88 116.87C306.859 117.247 309.307 119.875 320.07 129.922L333.537 142.498L330.856 160.608C329.382 170.567 328.28 178.816 328.408 178.944C328.529 179.071 335.892 175.127 344.769 170.185L360.899 161.205L377.365 169.436C386.817 174.17 393.837 177.29 393.849 176.78C393.866 176.287 392.364 168.108 390.513 158.612L387.148 141.343L399.779 128.338C406.724 121.186 412.41 115.106 412.41 114.834C412.41 114.561 404.49 113.407 394.818 112.264C385.14 111.121 376.82 109.857 376.321 109.457C375.828 109.05 371.79 101.73 367.351 93.1854C362.912 84.6351 359.095 77.6452 358.863 77.6452C358.63 77.6452 355.097 84.8788 351.012 93.7249ZM351.865 219.12C333.722 220.657 316.722 226.591 301.283 236.777C292.626 242.491 275.377 260.317 231.275 309.13C186.739 358.425 176.458 368.228 164.453 372.811C158.222 375.195 145.103 375.519 137.624 373.478C124.274 369.829 113.691 361.174 107.442 348.778C104.274 342.502 102.969 337.478 102.516 329.85C100.526 296.142 134.921 270.532 166.316 282.348C171.949 284.465 176.498 287.377 185.52 294.616C193.608 301.107 196.776 302.964 198.732 302.343C201.354 301.508 225.723 275.039 233.492 264.586C235.871 261.384 236.439 260.125 235.929 259.174C234.658 256.807 221.702 244.985 214.217 239.364C202.282 230.402 189.21 224.555 173.702 221.225C162.422 218.801 142.817 218.435 131.144 220.425C104.756 224.915 83.8336 237.253 65.4991 259.116C52.1892 274.987 44.7045 292.267 42.1806 312.982C41.0782 321.99 41.6816 341.748 43.2946 349.497C48.1915 373.083 61.9714 395.95 80.654 411.507C94.1616 422.827 110.248 430.651 127.494 434.287C137.416 436.427 157.74 436.59 168.364 434.618C183.171 431.868 199.347 425.539 210.458 418.149C218.871 412.551 239.305 391.28 287.381 338.064C315.289 307.169 328.117 293.456 332.312 290.045C336.757 286.426 343.858 282.655 349.248 281.054C372.642 274.111 399.303 288.624 407.385 312.703C409.532 319.096 410.054 329.897 408.563 336.991C407.095 343.975 402.012 354.155 397.44 359.266C383.167 375.2 361.444 379.487 341.845 370.235C335.608 367.288 332.214 365.003 325.106 358.964C322.141 356.447 318.538 353.656 317.094 352.763C314.541 351.185 314.413 351.174 312.522 352.415C306.029 356.667 278.098 388.705 276.891 393.276C276.595 394.401 277.094 395.816 278.498 397.841C282.798 404.048 300.123 417.998 309.992 423.207C331.5 434.56 360.992 438.753 384.525 433.805C421.496 426.027 454.184 396.501 465.62 360.559C468.69 350.913 469.566 345.315 470.041 332.35C470.744 313.214 468.962 301.867 462.905 286.965C453.894 264.789 435.734 243.877 415.624 232.525C397.452 222.269 373.687 217.269 351.865 219.12Z" fill="#932323"/>
</mask>
<g mask="url(#mask0_4_45)">
<rect x="67.0327" y="44.6957" width="149.501" height="158.154" fill="white"/>
</g>
</svg>
