<svg 
    width="73.9" 
    height="62.328" 
    viewBox="0 0 19.553 16.491" 
    xml:space="preserve"
    xmlns="http://www.w3.org/2000/svg">
    <path 
        d="m18.291 2.996-1.333 2.881-3.09.52c-1.7.286-3.135.53-3.19.543-.054.013.556.626 1.355 1.364.8.737 1.861 1.73 2.358 2.208l.905.867-.452 3.067c-.249 1.686-.424 3.094-.389 3.129.035.035 1.289-.615 2.787-1.445l2.723-1.508 2.845 1.375c1.564.756 2.862 1.357 2.885 1.335.022-.023-.229-1.423-.558-3.111l-.598-3.071 2.219-2.276c2.188-2.244 2.214-2.278 1.864-2.362-.195-.047-1.602-.234-3.127-.416-1.524-.182-2.806-.367-2.849-.411-.043-.045-.702-1.273-1.463-2.729C20.421 1.5 19.759.264 19.711.211c-.048-.053-.687 1.2-1.42 2.785m35.051.269C52.637 4.79 52 6.083 51.926 6.14c-.074.057-1.409.312-2.966.568-1.557.256-2.931.502-3.052.547-.176.065.246.518 2.101 2.25l2.321 2.168-.462 3.122c-.254 1.717-.444 3.139-.422 3.161.021.022 1.29-.658 2.82-1.51l2.78-1.548 2.838 1.419c1.629.816 2.839 1.354 2.841 1.266.003-.085-.256-1.495-.575-3.132l-.58-2.977 2.177-2.242c1.197-1.233 2.177-2.281 2.177-2.328 0-.047-1.365-.246-3.032-.443-1.668-.197-3.102-.415-3.188-.484-.085-.07-.781-1.332-1.546-2.805-.765-1.474-1.423-2.679-1.463-2.679-.04 0-.649 1.247-1.353 2.772m.147 21.617c-3.127.265-6.057 1.288-8.718 3.044-1.492.985-4.465 4.058-12.066 12.473-7.676 8.498-9.448 10.188-11.517 10.978-1.074.411-3.335.467-4.624.115-2.301-.629-4.125-2.121-5.202-4.258-.546-1.082-.771-1.948-.849-3.263-.343-5.811 5.585-10.226 10.996-8.189.971.365 1.755.867 3.31 2.115 1.394 1.119 1.94 1.439 2.277 1.332.452-.144 4.652-4.707 5.991-6.509.41-.552.508-.769.42-.933-.219-.408-2.452-2.446-3.742-3.415-2.057-1.545-4.31-2.553-6.983-3.127-1.944-.418-5.323-.481-7.335-.138-4.548.774-8.154 2.901-11.314 6.67C1.839 34.513.549 37.492.114 41.063c-.19 1.553-.086 4.959.192 6.295.844 4.066 3.219 8.008 6.439 10.69a18.514 18.514 0 0 0 8.073 3.927c1.71.369 5.213.397 7.044.057 2.552-.474 5.34-1.565 7.255-2.839 1.45-.965 4.972-4.632 13.258-13.806 4.81-5.326 7.021-7.69 7.744-8.278.766-.624 1.99-1.274 2.919-1.55 4.032-1.197 8.627 1.305 10.02 5.456.37 1.102.46 2.964.203 4.187-.253 1.204-1.129 2.959-1.917 3.84-2.46 2.747-6.204 3.486-9.582 1.891-1.075-.508-1.66-.902-2.885-1.943-.511-.434-1.132-.915-1.381-1.069-.44-.272-.462-.274-.788-.06-1.119.733-5.933 6.256-6.141 7.044-.051.194.035.438.277.787.741 1.07 3.727 3.475 5.428 4.373 3.707 1.957 8.79 2.68 12.846 1.827 6.372-1.341 12.006-6.431 13.977-12.627.529-1.663.68-2.628.762-4.863.121-3.299-.186-5.255-1.23-7.824-1.553-3.823-4.683-7.428-8.149-9.385-3.132-1.768-7.228-2.63-10.989-2.311" 
        fill-rule="evenodd"/>
</svg>