<svg width="73.9" height="62.328" viewBox="0 0 19.553 16.491" xml:space="preserve"
    xmlns="http://www.w3.org/2000/svg">
    <path 
        style="display:inline;fill:#000" 
        d="M36.453 54.628a4.972 4.972 0 0 0-2.857.947c-.235.173-1.51 1.517-2.831 2.986-2.602 2.892-2.852 3.108-3.692 3.195-1.27.131-2.372-.883-2.372-2.183 0-1.588 1.734-2.669 3.133-1.953.178.09.504.325.725.52.22.194.454.34.519.325.164-.038 1.748-1.808 1.741-1.946-.006-.138-.943-.953-1.414-1.231-.712-.42-1.609-.651-2.494-.657a4.957 4.957 0 0 0-.875.07c-1.089.188-1.864.595-2.669 1.4-.986.987-1.432 2.062-1.432 3.45 0 .902.119 1.456.47 2.188.659 1.378 1.922 2.396 3.364 2.71 1.392.302 2.953-.03 4.094-.872.193-.142 1.43-1.452 2.75-2.91 2.624-2.903 2.519-2.795 2.98-3.04 1.38-.735 3.134.355 3.134 1.946 0 .933-.598 1.787-1.457 2.08-.823.28-1.659.062-2.407-.627-.206-.19-.427-.344-.491-.343-.166.003-1.727 1.767-1.727 1.952 0 .204.987 1.052 1.571 1.349 1.149.584 2.597.722 3.763.359 1.66-.517 2.962-1.877 3.385-3.532.166-.65.165-1.818-.002-2.458-.351-1.35-1.368-2.614-2.58-3.209a5.097 5.097 0 0 0-2.329-.516Z" 
        transform="translate(-21.935 -48.067)"/>
    <path 
        style="fill:#a02c2c;stroke-width:.264583" 
            d="m12.605 50.386-1.534-.763-1.498.832.25-1.695-1.253-1.167 1.69-.285.722-1.553.793 1.518 1.7.208-1.198 1.223z" 
            transform="translate(-5.78 -45.755)"/>
    <path 
        style="fill:#a02c2c;stroke-width:.264583" 
            d="m12.605 50.386-1.534-.763-1.498.832.25-1.695-1.253-1.167 1.69-.285.722-1.553.793 1.518 1.7.208-1.198 1.223z" 
            transform="translate(3.489 -45.672)"/>
</svg>
